REM DIRINDEX 1\2,1\3
REM DIRNAME folder01,folder02,folder03
TITLE ""
FILE "Track38.mp3" MP3
  TRACK 01 AUDIO
    TITLE "2:cjc103_406"
    INDEX 01 00:00:00
  TRACK 02 AUDIO
    TITLE "0:"
    INDEX 01 00:16:02
  TRACK 03 AUDIO
    TITLE "3:cjc103_407"
    INDEX 01 00:18:01
  TRACK 04 AUDIO
    TITLE "0:"
    INDEX 01 00:19:15
  TRACK 05 AUDIO
    TITLE "3:cjc103_408"
    INDEX 01 00:20:65
  TRACK 06 AUDIO
    TITLE "0:"
    INDEX 01 00:22:27
  TRACK 07 AUDIO
    TITLE "3:cjc103_409"
    INDEX 01 00:24:29
  TRACK 08 AUDIO
    TITLE "0:"
    INDEX 01 00:25:50
  TRACK 09 AUDIO
    TITLE "3:cjc103_410"
    INDEX 01 00:27:28
  TRACK 10 AUDIO
    TITLE "0:"
    INDEX 01 00:28:43
  TRACK 11 AUDIO
    TITLE "3:cjc103_411"
    INDEX 01 00:30:10
  TRACK 12 AUDIO
    TITLE "0:"
    INDEX 01 00:31:39
  TRACK 13 AUDIO
    TITLE "3:cjc103_412"
    INDEX 01 00:33:30
  TRACK 14 AUDIO
    TITLE "0:"
    INDEX 01 00:34:59
  TRACK 15 AUDIO
    TITLE "3:cjc103_413"
    INDEX 01 00:36:27
  TRACK 16 AUDIO
    TITLE "0:"
    INDEX 01 00:37:59
  TRACK 17 AUDIO
    TITLE "3:cjc103_414"
    INDEX 01 00:38:67
  TRACK 18 AUDIO
    TITLE "0:"
    INDEX 01 00:40:40
  TRACK 19 AUDIO
    TITLE "3:cjc103_415"
    INDEX 01 00:42:06
  TRACK 20 AUDIO
    TITLE "0:"
    INDEX 01 00:43:19
  TRACK 21 AUDIO
    TITLE "3:cjc103_416"
    INDEX 01 00:44:65
  TRACK 22 AUDIO
    TITLE "0:"
    INDEX 01 00:46:02
  TRACK 23 AUDIO
    TITLE "3:cjc103_417"
    INDEX 01 00:48:00
  TRACK 24 AUDIO
    TITLE "0:"
    INDEX 01 00:49:31
  TRACK 25 AUDIO
    TITLE "3:cjc103_418"
    INDEX 01 00:51:22
  TRACK 26 AUDIO
    TITLE "0:"
    INDEX 01 00:52:61
  TRACK 27 AUDIO
    TITLE "3:cjc103_419"
    INDEX 01 00:54:60
  TRACK 28 AUDIO
    TITLE "0:"
    INDEX 01 00:56:53
  TRACK 29 AUDIO
    TITLE "3:cjc103_420"
    INDEX 01 00:58:26
  TRACK 30 AUDIO
    TITLE "0:"
    INDEX 01 01:00:21
  TRACK 31 AUDIO
    TITLE "2:cjc103_421"
    INDEX 01 01:01:62
  TRACK 32 AUDIO
    TITLE "0:"
    INDEX 01 01:11:64
  TRACK 33 AUDIO
    TITLE "3:cjc103_422"
    INDEX 01 01:13:02
  TRACK 34 AUDIO
    TITLE "0:"
    INDEX 01 01:14:00
  TRACK 35 AUDIO
    TITLE "3:cjc103_423"
    INDEX 01 01:15:13
  TRACK 36 AUDIO
    TITLE "0:"
    INDEX 01 01:16:28
  TRACK 37 AUDIO
    TITLE "3:cjc103_424"
    INDEX 01 01:17:33
  TRACK 38 AUDIO
    TITLE "0:"
    INDEX 01 01:18:41
  TRACK 39 AUDIO
    TITLE "3:cjc103_425"
    INDEX 01 01:19:64
  TRACK 40 AUDIO
    TITLE "0:"
    INDEX 01 01:20:67
  TRACK 41 AUDIO
    TITLE "3:cjc103_426"
    INDEX 01 01:22:35
  TRACK 42 AUDIO
    TITLE "0:"
    INDEX 01 01:23:46
  TRACK 43 AUDIO
    TITLE "3:cjc103_427"
    INDEX 01 01:25:08
  TRACK 44 AUDIO
    TITLE "0:"
    INDEX 01 01:26:32
  TRACK 45 AUDIO
    TITLE "3:cjc103_428"
    INDEX 01 01:27:57
  TRACK 46 AUDIO
    TITLE "0:"
    INDEX 01 01:28:63
  TRACK 47 AUDIO
    TITLE "3:cjc103_429"
    INDEX 01 01:30:20
  TRACK 48 AUDIO
    TITLE "0:"
    INDEX 01 01:31:32
  TRACK 49 AUDIO
    TITLE "3:cjc103_430"
    INDEX 01 01:32:74
  TRACK 50 AUDIO
    TITLE "0:"
    INDEX 01 01:33:70
  TRACK 51 AUDIO
    TITLE "3:cjc103_431"
    INDEX 01 01:35:29
  TRACK 52 AUDIO
    TITLE "0:"
    INDEX 01 01:36:25
  TRACK 53 AUDIO
    TITLE "3:cjc103_432"
    INDEX 01 01:37:48
  TRACK 54 AUDIO
    TITLE "0:"
    INDEX 01 01:38:67
  TRACK 55 AUDIO
    TITLE "3:cjc103_433"
    INDEX 01 01:40:29
  TRACK 56 AUDIO
    TITLE "0:"
    INDEX 01 01:41:48
  TRACK 57 AUDIO
    TITLE "3:cjc103_434"
    INDEX 01 01:43:00
  TRACK 58 AUDIO
    TITLE "0:"
    INDEX 01 01:44:58
  TRACK 59 AUDIO
    TITLE "3:cjc103_435"
    INDEX 01 01:45:61
  TRACK 60 AUDIO
    TITLE "0:"
    INDEX 01 01:47:29
